# xmcd
#
# Track frame offsets:
#	150
#	14149
#	26387
#	34756
#	49450
#	61528
#	73636
#	86082
#	99727
#	113111
#	126029
#	138008
#	150947
#	163444
#	174018
#	184351
#	194905
#	207920
#	220679
#	233376
#	245900
#	258751
#	273295
#	287405
#	305585
#	321719
#	337628
#	343491
#
# Disc length: 4753 seconds
#
# Revision: 0
# Processed by: cddbd v1.5.1PL0 Copyright (c) Steve Scherf et al.
# Submitted via: dBpowerAMP V4.0
#
DISCID=9c128f1c
DTITLE=Rolling Stones - 80 mn de blues, aux sources des stones
DYEAR=1900
DGENRE=Blues
TTITLE0=Muddy Walters - rollin'stones
TTITLE1=Muddy walters - i can't be satisfied
TTITLE2=myddy walters  :all night long
TTITLE3=muddy walters - still a fool
TTITLE4=howlin'wolf - how many more times
TTITLE5=howlin'wolf - moanin'at midnight
TTITLE6=elmore lames - dust my broom
TTITLE7=nat king cole - route 66
TTITLE8=amos milburn - down the road a piece
TTITLE9=walter brown and jay mcshawnn - confessin'the blues
TTITLE10=jazzgillum - key ta the highway
TTITLE11=hank snow - i'm moving o,
TTITLE12=big bill broonzy  - i can't be satisfied
TTITLE13=robert johnson - love in vain
TTITLE14=robert johnson - stpb breaking down
TTITLE15=fats domino - don't lie to me
TTITLE16=big maceo - worried life blues
TTITLE17=joe turner - roll'em pete
TTITLE18=jackie brenston/ike turner - rocket 88
TTITLE19=big joe william - baby, please don't go
TTITLE20=amos milburn - chicken shack boogie
TTITLE21=louis armstrong - sameday you'll be sorry
TTITLE22=billie holidays - good morning heartaches
TTITLE23=the count basic orchestra with jimmy rushing - gee baby ain't good ta you
TTITLE24=mick jagger and jacques barsamian
TTITLE25=marianne faithfull and françois jouffa
TTITLE26=jean-louis aubert
TTITLE27=françoise hardy
EXTD=
EXTT0=
EXTT1=
EXTT2=
EXTT3=
EXTT4=
EXTT5=
EXTT6=
EXTT7=
EXTT8=
EXTT9=
EXTT10=
EXTT11=
EXTT12=
EXTT13=
EXTT14=
EXTT15=
EXTT16=
EXTT17=
EXTT18=
EXTT19=
EXTT20=
EXTT21=
EXTT22=
EXTT23=
EXTT24=
EXTT25=
EXTT26=
EXTT27=
PLAYORDER=
